<svg width="48" height="48" viewBox="0 0 48 48" fill="none" xmlns="http://www.w3.org/2000/svg">
    <path d="M46 26V21.09C45.9992 20.6641 45.856 20.2507 45.5933 19.9155C45.3306 19.5803 44.9633 19.3426 44.55 19.24L39.55 18C39.3336 17.4143 39.0797 16.8431 38.79 16.29L41.24 12.21C41.4644 11.8501 41.5625 11.4258 41.5191 11.0039C41.4756 10.582 41.293 10.1866 41 9.88L37.5 6.39C37.1978 6.08832 36.8036 5.89601 36.3798 5.84348C35.956 5.79096 35.5267 5.88123 35.16 6.1L30.79 8.73C30.2078 8.46692 29.61 8.23982 29 8.05L27.85 3.45C27.7474 3.03665 27.5097 2.66944 27.1745 2.40672C26.8393 2.144 26.4259 2.00084 26 2H21.09C20.6641 2.00084 20.2507 2.144 19.9155 2.40672C19.5803 2.66944 19.3426 3.03665 19.24 3.45L18 8.41C17.4143 8.62643 16.8431 8.88029 16.29 9.17L12.21 6.72C11.8458 6.50075 11.419 6.40924 10.9969 6.45995C10.5749 6.51067 10.1818 6.70072 9.88 7L6.39 10.5C6.08832 10.8022 5.89601 11.1964 5.84348 11.6202C5.79096 12.044 5.88123 12.4733 6.1 12.84L8.73 17.21C8.46692 17.7922 8.23982 18.39 8.05 19L3.45 20.15C3.03665 20.2526 2.66944 20.4903 2.40672 20.8255C2.144 21.1607 2.00084 21.5741 2 22V26.94C2.00084 27.3659 2.144 27.7793 2.40672 28.1145C2.66944 28.4497 3.03665 28.6874 3.45 28.79L8.45 30.03C8.66643 30.6157 8.92029 31.1869 9.21 31.74L6.72 35.79C6.50075 36.1542 6.40924 36.581 6.45995 37.0031C6.51067 37.4251 6.70072 37.8182 7 38.12L10.49 41.61C10.7922 41.9117 11.1864 42.104 11.6102 42.1565C12.034 42.209 12.4633 42.1188 12.83 41.9L17.2 39.27C17.7843 39.5505 18.3854 39.7943 19 40L20.15 44.6C20.2619 45.0041 20.5037 45.3601 20.8381 45.6131C21.1724 45.8661 21.5807 46.0021 22 46H26.94C27.3659 45.9992 27.7793 45.856 28.1145 45.5933C28.4497 45.3306 28.6874 44.9633 28.79 44.55L30.03 39.55C30.6157 39.3336 31.1869 39.0797 31.74 38.79L35.82 41.24C36.1769 41.457 36.595 41.551 37.0104 41.5076C37.4259 41.4643 37.8156 41.286 38.12 41L41.61 37.51C41.9117 37.2078 42.104 36.8136 42.1565 36.3898C42.209 35.966 42.1188 35.5367 41.9 35.17L39.27 30.8C39.5505 30.2157 39.7943 29.6146 40 29L44.6 27.85C45.0041 27.7381 45.3601 27.4963 45.6131 27.1619C45.8661 26.8276 46.0021 26.4193 46 26ZM31 24C31 25.3845 30.5895 26.7378 29.8203 27.889C29.0511 29.0401 27.9579 29.9373 26.6788 30.4672C25.3997 30.997 23.9922 31.1356 22.6344 30.8655C21.2765 30.5954 20.0292 29.9287 19.0503 28.9497C18.0713 27.9708 17.4046 26.7235 17.1345 25.3656C16.8644 24.0078 17.003 22.6003 17.5328 21.3212C18.0627 20.0421 18.9599 18.9489 20.111 18.1797C21.2622 17.4105 22.6155 17 24 17C25.8565 17 27.637 17.7375 28.9497 19.0503C30.2625 20.363 31 22.1435 31 24Z" fill="#805333"/>
</svg>
