<svg width="16" height="16" viewBox="0 0 16 16" fill="none" xmlns="http://www.w3.org/2000/svg">
  <path d="M8.00002 2.57L8.67002 3C9.05671 3.22153 9.49436 3.3387 9.94002 3.34H10.71L11.1 4C11.3151 4.37434 11.6257 4.68491 12 4.9L12.67 5.29V6.06C12.6683 6.50476 12.782 6.94235 13 7.33L13.39 8L13 8.67C12.7785 9.05669 12.6613 9.49435 12.66 9.94V10.71L12 11.1C11.6107 11.319 11.2891 11.6407 11.07 12.03L10.68 12.7H9.94002C9.49792 12.6891 9.06049 12.7924 8.67002 13L8.00002 13.43L7.33002 13C6.94332 12.7785 6.50567 12.6613 6.06002 12.66H5.29002L4.90002 12C4.68492 11.6257 4.37436 11.3151 4.00002 11.1L3.33002 10.71V9.94C3.33176 9.49524 3.21806 9.05765 3.00002 8.67L2.57002 8L3.00002 7.33C3.20762 6.93953 3.31095 6.50209 3.30002 6.06V5.29L4.00002 4.9C4.37436 4.68491 4.68492 4.37434 4.90002 4L5.29002 3.33H6.06002C6.50477 3.33174 6.94237 3.21804 7.33002 3L8.00002 2.57ZM8.00002 1C7.82053 1.00005 7.64437 1.04841 7.49002 1.14L6.58002 1.66C6.42145 1.75023 6.24245 1.79843 6.06002 1.8H5.00002C4.82113 1.79852 4.64512 1.84506 4.49033 1.93476C4.33555 2.02447 4.20767 2.15405 4.12002 2.31L3.59002 3.22C3.5004 3.37897 3.36898 3.51038 3.21002 3.6L2.30002 4.13C2.14741 4.2181 2.0208 4.34497 1.933 4.49775C1.84519 4.65052 1.79932 4.82379 1.80002 5V6C1.79844 6.18243 1.75025 6.36144 1.66002 6.52L1.14002 7.43C1.05225 7.58202 1.00604 7.75446 1.00604 7.93C1.00604 8.10554 1.05225 8.27798 1.14002 8.43L1.66002 9.34C1.75025 9.49856 1.79844 9.67757 1.80002 9.86V11C1.79854 11.1789 1.84508 11.3549 1.93478 11.5097C2.02448 11.6645 2.15407 11.7923 2.31002 11.88L3.22002 12.41C3.37898 12.4996 3.5104 12.631 3.60002 12.79L4.13002 13.7C4.21812 13.8526 4.34499 13.9792 4.49776 14.067C4.65054 14.1548 4.82381 14.2007 5.00002 14.2H6.00002C6.18245 14.2016 6.36145 14.2498 6.52002 14.34L7.43002 14.86C7.58204 14.9478 7.75448 14.994 7.93002 14.994C8.10555 14.994 8.278 14.9478 8.43002 14.86L9.34002 14.34C9.49858 14.2498 9.67758 14.2016 9.86002 14.2H11C11.1789 14.2015 11.3549 14.1549 11.5097 14.0652C11.6645 13.9755 11.7924 13.846 11.88 13.69L12.41 12.78C12.4996 12.621 12.6311 12.4896 12.79 12.4L13.7 11.87C13.8526 11.7819 13.9792 11.655 14.067 11.5023C14.1548 11.3495 14.2007 11.1762 14.2 11V9.94C14.2016 9.75757 14.2498 9.57856 14.34 9.42L14.86 8.51C14.9478 8.35798 14.994 8.18554 14.994 8.01C14.994 7.83446 14.9478 7.66202 14.86 7.51L14.34 6.6C14.2498 6.44144 14.2016 6.26243 14.2 6.08V5C14.2015 4.82111 14.155 4.6451 14.0653 4.49032C13.9756 4.33554 13.846 4.20765 13.69 4.12L12.78 3.59C12.621 3.50038 12.4896 3.36897 12.4 3.21L11.87 2.3C11.7819 2.1474 11.655 2.02078 11.5023 1.93298C11.3495 1.84517 11.1762 1.7993 11 1.8H9.94002C9.75758 1.79843 9.57858 1.75023 9.42002 1.66L8.51002 1.14C8.35566 1.04841 8.1795 1.00005 8.00002 1Z" fill="#2D3741"/>
  <path d="M5.5 8L7.5 10L10.5 6" stroke="#2D3741" stroke-width="1.5" stroke-linecap="round" stroke-linejoin="round"/>
</svg>
