<svg width="48" height="48" viewBox="0 0 48 48" fill="none" xmlns="http://www.w3.org/2000/svg">
	<path d="M42.5 9.99998C41.5718 9.99998 40.6815 9.63124 40.0251 8.97486C39.3688 8.31848 39 7.42824 39 6.49998C39 5.57173 39.3688 4.68149 40.0251 4.02511C40.6815 3.36873 41.5718 2.99998 42.5 2.99998C42.6326 2.99998 42.7598 2.94731 42.8536 2.85354C42.9473 2.75977 43 2.63259 43 2.49998C43 2.36738 42.9473 2.2402 42.8536 2.14643C42.7598 2.05266 42.6326 1.99998 42.5 1.99998H9.50001C8.90577 1.99729 8.31694 2.11285 7.7678 2.33993C7.21866 2.567 6.72018 2.90106 6.30138 3.32264C5.88259 3.74423 5.55185 4.24492 5.32843 4.79556C5.10501 5.3462 4.99337 5.93578 5.00001 6.52998C5.00001 6.52998 5.00001 6.52998 5.00001 6.58998V41.47C4.99208 42.0587 5.10053 42.6431 5.31912 43.1898C5.5377 43.7364 5.86213 44.2345 6.27376 44.6555C6.68539 45.0764 7.17612 45.4118 7.71776 45.6426C8.2594 45.8733 8.84129 45.9948 9.43001 46H43V10.48C42.9948 10.3509 42.9399 10.2288 42.8467 10.1393C42.7535 10.0498 42.6292 9.99988 42.5 9.99998ZM21 28L17 24L13 28V11H21V28ZM38.6 9.99998H9.45001C9.22069 10.0251 8.98932 10.0251 8.76001 9.99998C8.66001 9.99998 8.57001 9.93998 8.47001 9.90998C8.35393 9.88243 8.24023 9.84565 8.13001 9.79998C7.994 9.74176 7.86348 9.67148 7.74001 9.58998L7.56001 9.48998C7.40568 9.38752 7.26167 9.2703 7.13001 9.13999C7.13001 9.13999 7.13001 9.13999 7.07001 9.13999C6.73939 8.82197 6.47471 8.4419 6.29111 8.0215C6.10751 7.60111 6.00859 7.14864 6.00001 6.68998C5.99515 6.63676 5.99515 6.58321 6.00001 6.52998C5.9934 6.07131 6.07754 5.61585 6.24759 5.18981C6.41764 4.76377 6.67025 4.37555 6.99088 4.04749C7.3115 3.71943 7.69383 3.45799 8.11586 3.27822C8.53789 3.09845 8.9913 3.00389 9.45001 2.99998H39.71C39.1912 3.42391 38.7732 3.95784 38.4861 4.56316C38.1991 5.16848 38.0501 5.83004 38.0501 6.49998C38.0501 7.16993 38.1991 7.83149 38.4861 8.43681C38.7732 9.04213 39.1912 9.57606 39.71 9.99998H38.6Z" fill="#2E6773"/>
</svg>
