<svg width="48" height="48" viewBox="0 0 48 48" fill="none" xmlns="http://www.w3.org/2000/svg">
	<path d="M40.72 37.42L26.49 45.63C24.81 46.63 23.49 45.57 23.49 43.33V27.93C23.5031 26.7921 23.7811 25.6728 24.3018 24.6609C24.8225 23.649 25.5717 22.7722 26.49 22.1L40.72 13.89C42.4 12.89 43.77 13.95 43.77 16.2V31.59C43.7526 32.7325 43.4677 33.8551 42.938 34.8676C42.4083 35.88 41.6487 36.7542 40.72 37.42Z" fill="#335380"/>
	<path d="M25.49 20.37L37.36 13.52V12.35C37.36 10.11 36 9.08 34.36 10.05L20.09 18.26C19.1534 18.9209 18.3856 19.7931 17.8487 20.806C17.3119 21.8188 17.0211 22.9439 17 24.09V39.49C17 41.73 18.36 42.76 20.05 41.79L21.44 41V27.93C21.4537 26.4364 21.8294 24.9683 22.5347 23.6516C23.2401 22.335 24.2541 21.2089 25.49 20.37Z" fill="#335380"/>
	<path d="M19.09 16.53L31 9.68V8.51C31 6.27 29.64 5.24 27.95 6.21L13.69 14.42C12.7688 15.0894 12.0175 15.9656 11.4965 16.9782C10.9755 17.9907 10.6993 19.1113 10.69 20.25V35.65C10.69 37.89 12.05 38.92 13.69 37.95L15 37.17V24.09C15.0173 22.5926 15.3987 21.1219 16.1113 19.8048C16.8238 18.4878 17.8461 17.3638 19.09 16.53Z" fill="#335380"/>
	<path d="M12.69 12.69L24.56 5.83001V4.67001C24.56 2.43001 23.19 1.39001 21.56 2.37001L7.28 10.58C6.36055 11.2511 5.61054 12.1276 5.0897 13.1398C4.56887 14.152 4.2916 15.2718 4.28 16.41V31.8C4.28 34.05 5.65 35.08 7.33 34.11L8.69 33.33V20.25C8.69731 18.7607 9.06494 17.2952 9.76148 15.9787C10.458 14.6623 11.4628 13.5339 12.69 12.69Z" fill="#335380"/>
</svg>
