<svg width="16" height="16" viewBox="0 0 16 16" fill="none" xmlns="http://www.w3.org/2000/svg">
  <path d="M14.18 5.32001L10.68 1.82001C10.5369 1.68426 10.3472 1.60858 10.15 1.60858C9.95275 1.60858 9.76304 1.68426 9.61998 1.82001L1.81998 9.62001C1.67928 9.76053 1.60015 9.95117 1.59998 10.15V13.65C1.60257 13.8481 1.68241 14.0374 1.82251 14.1775C1.9626 14.3176 2.15187 14.3974 2.34998 14.4H5.84998C6.04882 14.3998 6.23946 14.3207 6.37998 14.18L14.18 6.38001C14.3204 6.23939 14.3993 6.04876 14.3993 5.85001C14.3993 5.65126 14.3204 5.46064 14.18 5.32001ZM5.56998 12.87L3.12998 10.43L7.59998 6.00001L9.99998 8.40001L5.56998 12.87ZM11.1 7.34001L8.65998 4.90001L10.15 3.41001L12.59 5.85001L11.1 7.34001Z" fill="#2D3741"/>
</svg>
