<svg width="16" height="16" viewBox="0 0 16 16" fill="none" xmlns="http://www.w3.org/2000/svg">
  <path d="M14.49 7.24003H7.30998L8.99998 5.52003C9.14043 5.3794 9.21932 5.18878 9.21932 4.99003C9.21932 4.79127 9.14043 4.60065 8.99998 4.46003C8.86247 4.33704 8.68446 4.26904 8.49998 4.26904C8.3155 4.26904 8.13749 4.33704 7.99998 4.46003L4.99998 7.46003C4.85953 7.60065 4.78064 7.79127 4.78064 7.99003C4.78064 8.18878 4.85953 8.3794 4.99998 8.52003L7.99998 11.52C8.06179 11.6154 8.14445 11.6954 8.24172 11.7541C8.33899 11.8128 8.44833 11.8487 8.56148 11.8589C8.67463 11.8692 8.78864 11.8536 8.89489 11.8134C9.00114 11.7732 9.09686 11.7093 9.17483 11.6267C9.25279 11.544 9.31097 11.4448 9.34495 11.3363C9.37893 11.2279 9.38784 11.1132 9.371 11.0008C9.35416 10.8885 9.31201 10.7814 9.24774 10.6877C9.18347 10.594 9.09875 10.5162 8.99998 10.46L7.30998 8.74003H14.49C14.6889 8.74003 14.8797 8.66101 15.0203 8.52036C15.161 8.3797 15.24 8.18894 15.24 7.99003C15.24 7.79111 15.161 7.60035 15.0203 7.4597C14.8797 7.31904 14.6889 7.24003 14.49 7.24003Z" fill="#2D3741"/>
  <path d="M12 11.25C11.8019 11.2526 11.6126 11.3324 11.4725 11.4725C11.3324 11.6126 11.2526 11.8019 11.25 12V13.25H2.75V2.75H11.24V4C11.24 4.19891 11.319 4.38968 11.4597 4.53033C11.6003 4.67098 11.7911 4.75 11.99 4.75C12.1889 4.75 12.3797 4.67098 12.5203 4.53033C12.661 4.38968 12.74 4.19891 12.74 4V2C12.74 1.80281 12.6624 1.61354 12.5239 1.47317C12.3854 1.33281 12.1972 1.25263 12 1.25H2C1.80189 1.25259 1.61263 1.33244 1.47253 1.47253C1.33244 1.61263 1.25259 1.80189 1.25 2V14C1.25259 14.1981 1.33244 14.3874 1.47253 14.5275C1.61263 14.6676 1.80189 14.7474 2 14.75H12C12.1981 14.7474 12.3874 14.6676 12.5275 14.5275C12.6676 14.3874 12.7474 14.1981 12.75 14V12C12.7474 11.8019 12.6676 11.6126 12.5275 11.4725C12.3874 11.3324 12.1981 11.2526 12 11.25Z" fill="#2D3741"/>
</svg>
