<svg width="48" height="48" viewBox="0 0 48 48" fill="none" xmlns="http://www.w3.org/2000/svg">
  <path d="M45.66 31.88C45.5077 31.6743 45.3257 31.4923 45.12 31.34C44.7876 31.1202 44.3984 31.0021 44 31H40.5V25.36C40.5 23.47 39.4 22 38 22H24.5V17H32C32.3984 16.9979 32.7876 16.8798 33.12 16.66C33.3287 16.5112 33.5112 16.3287 33.66 16.12C33.8798 15.7876 33.9979 15.3984 34 15V7C33.9979 6.60156 33.8798 6.21236 33.66 5.88C33.5077 5.67431 33.3257 5.49233 33.12 5.34C32.7876 5.12023 32.3984 5.00208 32 5H16C15.6016 5.00208 15.2124 5.12023 14.88 5.34C14.6713 5.48879 14.4888 5.67129 14.34 5.88C14.1202 6.21236 14.0021 6.60156 14 7V15C14 15.5304 14.2107 16.0391 14.5858 16.4142C14.9609 16.7893 15.4696 17 16 17H23.5V22H10C8.6 22 7.5 23.47 7.5 25.36V31H4C3.60156 31.0021 3.21236 31.1202 2.88 31.34C2.67129 31.4888 2.48879 31.6713 2.34 31.88C2.12023 32.2124 2.00208 32.6016 2 33V41C2 41.5304 2.21071 42.0391 2.58579 42.4142C2.96086 42.7893 3.46957 43 4 43H12C12.3984 42.9979 12.7876 42.8798 13.12 42.66C13.3287 42.5112 13.5112 42.3287 13.66 42.12C13.8798 41.7876 13.9979 41.3984 14 41V33C13.9979 32.6016 13.8798 32.2124 13.66 31.88C13.5077 31.6743 13.3257 31.4923 13.12 31.34C12.7876 31.1202 12.3984 31.0021 12 31H8.5V25.36C8.5 24.08 9.19 23 10 23H23.5V31H20C19.6016 31.0021 19.2124 31.1202 18.88 31.34C18.6713 31.4888 18.4888 31.6713 18.34 31.88C18.1202 32.2124 18.0021 32.6016 18 33V41C18 41.5304 18.2107 42.0391 18.5858 42.4142C18.9609 42.7893 19.4696 43 20 43H28C28.3984 42.9979 28.7876 42.8798 29.12 42.66C29.3287 42.5112 29.5112 42.3287 29.66 42.12C29.8798 41.7876 29.9979 41.3984 30 41V33C29.9979 32.6016 29.8798 32.2124 29.66 31.88C29.5077 31.6743 29.3257 31.4923 29.12 31.34C28.7876 31.1202 28.3984 31.0021 28 31H24.5V23H38C38.81 23 39.5 24.08 39.5 25.36V31H36C35.6016 31.0021 35.2124 31.1202 34.88 31.34C34.6713 31.4888 34.4888 31.6713 34.34 31.88C34.1202 32.2124 34.0021 32.6016 34 33V41C34 41.5304 34.2107 42.0391 34.5858 42.4142C34.9609 42.7893 35.4696 43 36 43H44C44.3984 42.9979 44.7876 42.8798 45.12 42.66C45.3287 42.5112 45.5112 42.3287 45.66 42.12C45.8798 41.7876 45.9979 41.3984 46 41V33C45.9979 32.6016 45.8798 32.2124 45.66 31.88Z" fill="#593380"/>
</svg>
