<svg width="200" height="200" viewBox="0 0 200 200" fill="none" xmlns="http://www.w3.org/2000/svg">
<path d="M69.3202 121.24C100.314 121.24 125.44 96.1142 125.44 65.12C125.44 34.1258 100.314 9 69.3202 9C38.326 9 13.2002 34.1258 13.2002 65.12C13.2002 96.1142 38.326 121.24 69.3202 121.24Z" fill="#6885AD" stroke="#2D3741" stroke-width="2" stroke-linecap="round" stroke-linejoin="round"/>
<path d="M69.3203 111.89C95.1507 111.89 116.09 90.9504 116.09 65.12C116.09 39.2897 95.1507 18.35 69.3203 18.35C43.4899 18.35 22.5503 39.2897 22.5503 65.12C22.5503 90.9504 43.4899 111.89 69.3203 111.89Z" fill="white" stroke="#2D3741" stroke-width="2" stroke-linecap="round" stroke-linejoin="round"/>
<path d="M113.822 99.9879L104.199 109.612L112.132 117.545L121.756 107.922L113.822 99.9879Z" fill="#D5E1F2" stroke="#2D3741" stroke-width="2" stroke-linecap="round" stroke-linejoin="round"/>
<path d="M122.889 106.239L110.444 118.684C108.882 120.246 108.882 122.779 110.444 124.341L167.571 181.468C169.133 183.03 171.666 183.03 173.228 181.468L185.673 169.023C187.235 167.461 187.235 164.928 185.673 163.366L128.546 106.239C126.984 104.677 124.451 104.677 122.889 106.239Z" fill="#6885AD" stroke="#2D3741" stroke-width="2" stroke-linecap="round" stroke-linejoin="round"/>
<path d="M32.7603 153.59H60.0003L40.7303 134.34C38.2002 136.866 36.1937 139.867 34.826 143.17C33.4583 146.474 32.7563 150.015 32.7603 153.59Z" fill="#D5E1F2" stroke="#2D3741" stroke-width="2" stroke-linecap="round" stroke-linejoin="round"/>
<path d="M36.25 32.05L50.08 45.88C52.6025 43.3457 55.6006 41.3344 58.9023 39.9615C62.204 38.5887 65.7443 37.8813 69.32 37.88V18.35C63.1773 18.3444 57.094 19.5517 51.419 21.9027C45.744 24.2536 40.5891 27.702 36.25 32.05Z" fill="#D5E1F2" stroke="#2D3741" stroke-width="2" stroke-linecap="round" stroke-linejoin="round"/>
<path d="M75.3403 59.11L102.39 32.05C98.0525 27.7003 92.8979 24.2507 87.2226 21.8996C81.5473 19.5485 75.4633 18.3422 69.3203 18.35V56.62C70.4383 56.6183 71.5456 56.8373 72.5786 57.2646C73.6117 57.6919 74.5502 58.3191 75.3403 59.11Z" fill="#D5E1F2" stroke="#2D3741" stroke-width="2" stroke-linecap="round" stroke-linejoin="round"/>
<path d="M84.6303 80.43C79.7003 85.35 76.8403 88.93 69.3203 88.93V111.93C75.4636 111.94 81.5483 110.735 87.2239 108.383C92.8994 106.032 98.0538 102.582 102.39 98.23L84.6303 80.43Z" fill="#D5E1F2" stroke="#2D3741" stroke-width="2" stroke-linecap="round" stroke-linejoin="round"/>
<path d="M70.7102 163.47C68.189 166.006 65.1912 168.019 61.8892 169.392C58.5872 170.765 55.0463 171.471 51.4702 171.47V191C57.6132 191.008 63.6972 189.802 69.3725 187.45C75.0478 185.099 80.2024 181.65 84.5402 177.3L70.7102 163.47Z" fill="#D5E1F2" stroke="#2D3741" stroke-width="2" stroke-linecap="round" stroke-linejoin="round"/>
<path d="M81.23 131.48V158.69C84.8057 158.689 88.346 157.981 91.6477 156.608C94.9494 155.236 97.9475 153.224 100.47 150.69L81.23 131.48Z" fill="#D5E1F2" stroke="#2D3741" stroke-width="2" stroke-linecap="round" stroke-linejoin="round"/>
<path d="M80.1504 75.94L102.39 98.19C106.742 93.8535 110.193 88.6991 112.544 83.0235C114.895 77.3479 116.1 71.2633 116.09 65.12H84.6304C84.634 67.1298 84.24 69.1205 83.4712 70.9775C82.7023 72.8344 81.5737 74.521 80.1504 75.94Z" fill="#D5E1F2" stroke="#2D3741" stroke-width="2" stroke-linecap="round" stroke-linejoin="round"/>
<path d="M56.5703 129.78L67.3903 140.6C68.8127 139.18 69.9407 137.494 70.7095 135.637C71.4784 133.78 71.8728 131.79 71.8703 129.78H56.5703Z" fill="#D5E1F2" stroke="#2D3741" stroke-width="2" stroke-linecap="round" stroke-linejoin="round"/>
<path d="M63.31 71.13L36.25 98.19C40.5878 102.54 45.7425 105.989 51.4177 108.34C57.093 110.692 63.177 111.898 69.32 111.89V73.62C68.2035 73.6221 67.0976 73.4031 66.0661 72.9758C65.0346 72.5484 64.0979 71.9211 63.31 71.13Z" fill="#D5E1F2" stroke="#2D3741" stroke-width="2" stroke-linecap="round" stroke-linejoin="round"/>
<path d="M58.5003 54.3L36.2503 32.05C31.9024 36.3891 28.454 41.544 26.103 47.219C23.752 52.894 22.5447 58.9773 22.5503 65.12H54.0003C54.0004 63.1089 54.398 61.1177 55.1703 59.2608C55.9426 57.4039 57.0743 55.718 58.5003 54.3Z" fill="#D5E1F2" stroke="#2D3741" stroke-width="2" stroke-linecap="round" stroke-linejoin="round"/>
<path d="M45.8003 88.37C42.0003 84.53 34.4603 70.92 34.4603 65.12H22.5503C22.5486 77.3873 27.381 89.1611 36.0003 97.89L45.8003 88.37Z" fill="#D5E1F2" stroke="#2D3741" stroke-width="2" stroke-linecap="round" stroke-linejoin="round"/>
<path opacity="0.5" d="M44.0903 37.49L60.7003 20.88C62.9828 20.436 65.2965 20.1718 67.6203 20.09V36.26C61.1334 36.621 54.9621 39.1777 50.1203 43.51L44.0903 37.49Z" fill="white"/>
<path opacity="0.5" d="M24.29 63.42C24.29 63.07 24.29 62.71 24.35 62.33L44.24 42.44L56.15 54.36C54.0311 56.9424 52.726 60.0955 52.4 63.42H24.29Z" fill="white"/>
<path opacity="0.5" d="M71 20.09C79.2896 20.3754 87.3349 22.9695 94.23 27.58L71 50.81V20.09Z" fill="white"/>
<path opacity="0.5" d="M28.7 84.63C26.0225 79.0592 24.5213 72.9965 24.29 66.82H32.91C33.6532 70.2991 34.8607 73.6626 36.5 76.82L28.7 84.63Z" fill="white"/>
<path opacity="0.5" d="M82.9302 153.38L87.8602 140.51L91.1502 143.8L86.3002 156.48C85.1871 156.699 84.0616 156.849 82.9302 156.93V153.38Z" fill="white"/>
<path opacity="0.5" d="M42.63 151.88L37.77 141C38.5908 139.579 39.5451 138.24 40.62 137L47.28 151.92L42.63 151.88Z" fill="white"/>
<path opacity="0.5" d="M64.5401 170C66.7532 168.874 68.8132 167.469 70.6701 165.82L62.2101 188C60.5962 188.4 58.96 188.704 57.3101 188.91L64.5401 170Z" fill="white"/>
<path d="M84.4902 50.23C88.3977 54.2004 90.5854 59.5493 90.5802 65.12H116.09C116.103 52.8612 111.285 41.0911 102.68 32.36L84.4902 50.23Z" fill="#D5E1F2" stroke="#2D3741" stroke-width="2" stroke-linecap="round" stroke-linejoin="round"/>
</svg>
