<svg width="16" height="16" viewBox="0 0 16 16" fill="none" xmlns="http://www.w3.org/2000/svg">
  <path d="M8 2.5C9.0878 2.5 10.1512 2.82257 11.0556 3.42692C11.9601 4.03126 12.6651 4.89025 13.0813 5.89524C13.4976 6.90023 13.6065 8.0061 13.3943 9.073C13.1821 10.1399 12.6583 11.1199 11.8891 11.8891C11.1199 12.6583 10.1399 13.1821 9.073 13.3943C8.0061 13.6065 6.90024 13.4976 5.89524 13.0813C4.89025 12.6651 4.03127 11.9601 3.42692 11.0556C2.82257 10.1512 2.5 9.0878 2.5 8C2.50265 6.54212 3.08296 5.14471 4.11384 4.11383C5.14471 3.08295 6.54212 2.50264 8 2.5ZM8 1C6.61553 1 5.26216 1.41054 4.11101 2.17971C2.95987 2.94888 2.06266 4.04213 1.53285 5.32122C1.00303 6.6003 0.86441 8.00776 1.13451 9.36563C1.4046 10.7235 2.07129 11.9708 3.05026 12.9497C4.02922 13.9287 5.2765 14.5954 6.63437 14.8655C7.99224 15.1356 9.3997 14.997 10.6788 14.4672C11.9579 13.9373 13.0511 13.0401 13.8203 11.889C14.5895 10.7378 15 9.38447 15 8C15 6.14348 14.2625 4.36301 12.9497 3.05025C11.637 1.7375 9.85652 1 8 1Z" fill="#D70A5A"/>
  <path d="M10.75 8.75H5.25C5.05109 8.75 4.86032 8.67098 4.71967 8.53033C4.57902 8.38968 4.5 8.19891 4.5 8C4.5 7.80109 4.57902 7.61032 4.71967 7.46967C4.86032 7.32902 5.05109 7.25 5.25 7.25H10.75C10.9489 7.25 11.1397 7.32902 11.2803 7.46967C11.421 7.61032 11.5 7.80109 11.5 8C11.5 8.19891 11.421 8.38968 11.2803 8.53033C11.1397 8.67098 10.9489 8.75 10.75 8.75Z" fill="#D70A5A"/>
</svg>
