<svg width="48" height="48" viewBox="0 0 48 48" fill="none" xmlns="http://www.w3.org/2000/svg">
    <path d="M38 20.9H10V22.9H38V20.9Z" fill="#803353"/>
    <path d="M38 26.9H10V28.9H38V26.9Z" fill="#803353"/>
    <path d="M38 32.9H10V34.9H38V32.9Z" fill="#803353"/>
    <path d="M43.5 6H4.5C3.83696 6 3.20107 6.26339 2.73223 6.73223C2.26339 7.20107 2 7.83696 2 8.5V40.5C2 41.163 2.26339 41.7989 2.73223 42.2678C3.20107 42.7366 3.83696 43 4.5 43H43.5C44.163 43 44.7989 42.7366 45.2678 42.2678C45.7366 41.7989 46 41.163 46 40.5V8.5C46 7.83696 45.7366 7.20107 45.2678 6.73223C44.7989 6.26339 44.163 6 43.5 6ZM45 40.5C45 40.8978 44.842 41.2794 44.5607 41.5607C44.2794 41.842 43.8978 42 43.5 42H4.5C4.10218 42 3.72064 41.842 3.43934 41.5607C3.15804 41.2794 3 40.8978 3 40.5V14H45V40.5ZM42 7.9C42.3956 7.9 42.7822 8.0173 43.1111 8.23706C43.44 8.45682 43.6964 8.76918 43.8478 9.13463C43.9991 9.50009 44.0387 9.90222 43.9616 10.2902C43.8844 10.6781 43.6939 11.0345 43.4142 11.3142C43.1345 11.5939 42.7781 11.7844 42.3902 11.8616C42.0022 11.9387 41.6001 11.8991 41.2346 11.7478C40.8692 11.5964 40.5568 11.34 40.3371 11.0111C40.1173 10.6822 40 10.2956 40 9.9C39.9999 9.6331 40.0533 9.36887 40.1569 9.12291C40.2605 8.87694 40.4123 8.6542 40.6034 8.46781C40.7944 8.28142 41.0208 8.13516 41.2693 8.03765C41.5177 7.94013 41.7832 7.89333 42.05 7.9H42ZM36 7.9C36.3956 7.9 36.7822 8.0173 37.1111 8.23706C37.44 8.45682 37.6964 8.76918 37.8478 9.13463C37.9991 9.50009 38.0387 9.90222 37.9616 10.2902C37.8844 10.6781 37.6939 11.0345 37.4142 11.3142C37.1345 11.5939 36.7781 11.7844 36.3902 11.8616C36.0022 11.9387 35.6001 11.8991 35.2346 11.7478C34.8692 11.5964 34.5568 11.34 34.3371 11.0111C34.1173 10.6822 34 10.2956 34 9.9C33.9999 9.6331 34.0533 9.36887 34.1569 9.12291C34.2605 8.87694 34.4123 8.6542 34.6034 8.46781C34.7944 8.28142 35.0208 8.13516 35.2693 8.03765C35.5177 7.94013 35.7832 7.89333 36.05 7.9H36Z" fill="#803353"/>
</svg>
